<svg width="22" height="16" viewBox="0 0 22 16" fill="none" xmlns="http://www.w3.org/2000/svg">
<path fill-rule="evenodd" clip-rule="evenodd" d="M-3.05176e-05 1.45455C-3.05176e-05 0.651222 0.651192 0 1.45451 0H9.45452C10.2578 0 10.9091 0.651222 10.9091 1.45455C10.9091 2.25787 10.2578 2.90909 9.45452 2.90909H1.45451C0.651192 2.90909 -3.05176e-05 2.25787 -3.05176e-05 1.45455Z" fill="#51459E"/>
<path fill-rule="evenodd" clip-rule="evenodd" d="M-3.05176e-05 7.99999C-3.05176e-05 7.19666 0.651192 6.54544 1.45451 6.54544H19.6363C20.4397 6.54544 21.0909 7.19666 21.0909 7.99999C21.0909 8.80331 20.4397 9.45453 19.6363 9.45453H1.45451C0.651192 9.45453 -3.05176e-05 8.80331 -3.05176e-05 7.99999Z" fill="#51459E"/>
<path fill-rule="evenodd" clip-rule="evenodd" d="M-3.05176e-05 14.5455C-3.05176e-05 13.7421 0.651192 13.0909 1.45451 13.0909H16.7272C17.5306 13.0909 18.1818 13.7421 18.1818 14.5455C18.1818 15.3488 17.5306 16 16.7272 16H1.45451C0.651192 16 -3.05176e-05 15.3488 -3.05176e-05 14.5455Z" fill="#51459E"/>
</svg>
