<svg width="16" height="16" viewBox="0 0 16 16" fill="none" xmlns="http://www.w3.org/2000/svg">
<path d="M13.6 1.6H12V0.8C12 0.587827 11.9157 0.384344 11.7657 0.234315C11.6156 0.0842854 11.4121 0 11.2 0C10.9878 0 10.7843 0.0842854 10.6343 0.234315C10.4843 0.384344 10.4 0.587827 10.4 0.8V1.6H5.59997V0.8C5.59997 0.587827 5.51568 0.384344 5.36565 0.234315C5.21563 0.0842854 5.01214 0 4.79997 0C4.5878 0 4.38431 0.0842854 4.23428 0.234315C4.08426 0.384344 3.99997 0.587827 3.99997 0.8V1.6H2.39997C1.76345 1.6 1.153 1.85286 0.702913 2.30294C0.252826 2.75303 -3.05176e-05 3.36348 -3.05176e-05 4V13.6C-3.05176e-05 14.2365 0.252826 14.847 0.702913 15.2971C1.153 15.7471 1.76345 16 2.39997 16H13.6C14.2365 16 14.8469 15.7471 15.297 15.2971C15.7471 14.847 16 14.2365 16 13.6V4C16 3.36348 15.7471 2.75303 15.297 2.30294C14.8469 1.85286 14.2365 1.6 13.6 1.6ZM14.4 13.6C14.4 13.8122 14.3157 14.0157 14.1657 14.1657C14.0156 14.3157 13.8121 14.4 13.6 14.4H2.39997C2.1878 14.4 1.98431 14.3157 1.83428 14.1657C1.68426 14.0157 1.59997 13.8122 1.59997 13.6V8H14.4V13.6ZM14.4 6.4H1.59997V4C1.59997 3.78783 1.68426 3.58434 1.83428 3.43431C1.98431 3.28429 2.1878 3.2 2.39997 3.2H3.99997V4C3.99997 4.21217 4.08426 4.41566 4.23428 4.56569C4.38431 4.71571 4.5878 4.8 4.79997 4.8C5.01214 4.8 5.21563 4.71571 5.36565 4.56569C5.51568 4.41566 5.59997 4.21217 5.59997 4V3.2H10.4V4C10.4 4.21217 10.4843 4.41566 10.6343 4.56569C10.7843 4.71571 10.9878 4.8 11.2 4.8C11.4121 4.8 11.6156 4.71571 11.7657 4.56569C11.9157 4.41566 12 4.21217 12 4V3.2H13.6C13.8121 3.2 14.0156 3.28429 14.1657 3.43431C14.3157 3.58434 14.4 3.78783 14.4 4V6.4Z" fill="#C7C7D2"/>
</svg>
