<svg width="16" height="12" viewBox="0 0 16 12" fill="none" xmlns="http://www.w3.org/2000/svg">
<path d="M15 7.50007H13.9738C13.5693 7.50007 13.2046 7.25634 13.0499 6.88256L12.0445 4.45407C11.9862 4.31354 11.8877 4.19485 11.7624 4.11393C11.637 4.03301 11.4908 3.99372 11.3432 4.00134C11.1957 4.00896 11.054 4.06312 10.937 4.15655C10.8201 4.24998 10.7335 4.37822 10.6889 4.52407L9.53855 8.29671C9.24572 9.25701 7.87869 9.23518 7.61668 8.26601L5.80052 1.54807C5.75842 1.3921 5.66871 1.25443 5.54479 1.15565C5.42088 1.05687 5.26942 1.00229 5.11307 1.00007C4.95647 0.99791 4.80341 1.0484 4.67686 1.14395C4.5503 1.23951 4.45707 1.37499 4.41114 1.53007L2.84997 6.78486C2.72392 7.20913 2.33398 7.50007 1.89138 7.50007H0.999969" stroke="#C7C7D2" stroke-width="2" stroke-linecap="round"/>
</svg>
