<svg width="16" height="14" viewBox="0 0 16 14" fill="none" xmlns="http://www.w3.org/2000/svg">
<path d="M11.4996 10.9522C10.4181 10.9522 9.22632 11.3668 8.13869 11.9017C6.39044 12.7618 5.51632 13.1922 5.08582 12.9177C4.65532 12.644 4.73669 11.7939 4.90032 10.0946L4.93707 9.70816" stroke="#C7C7D2" stroke-width="2" stroke-linecap="round"/>
<path d="M11.5 9.95198C10.9477 9.95198 10.5 10.3997 10.5 10.952C10.5 11.5043 10.9477 11.952 11.5 11.952V9.95198ZM2.99997 2H13V0H2.99997V2ZM14 3V8.95198H16V3H14ZM1.99997 8.95198V3H-3.05176e-05V8.95198H1.99997ZM13 9.95198H11.5V11.952H13V9.95198ZM4.49997 9.95198H2.99997V11.952H4.49997V9.95198ZM-3.05176e-05 8.95198C-3.05176e-05 10.6088 1.34312 11.952 2.99997 11.952V9.95198C2.44768 9.95198 1.99997 9.50426 1.99997 8.95198H-3.05176e-05ZM14 8.95198C14 9.50426 13.5523 9.95198 13 9.95198V11.952C14.6568 11.952 16 10.6088 16 8.95198H14ZM13 2C13.5523 2 14 2.44772 14 3H16C16 1.34315 14.6568 0 13 0V2ZM2.99997 0C1.34311 0 -3.05176e-05 1.34315 -3.05176e-05 3H1.99997C1.99997 2.44772 2.44769 2 2.99997 2V0Z" fill="#C7C7D2"/>
</svg>
