<svg width="16" height="16" viewBox="0 0 16 16" fill="none" xmlns="http://www.w3.org/2000/svg">
<path d="M8.70806 0.292786C8.52024 0.105315 8.26554 0 7.99997 0C7.7344 0 7.4797 0.105315 7.29188 0.292786L0.281113 7.29279C0.0986748 7.48139 -0.00227458 7.73399 7.34321e-06 7.99619C0.00228927 8.25838 0.10762 8.5092 0.293313 8.6946C0.479007 8.88001 0.730205 8.98518 0.992805 8.98746C1.2554 8.98974 1.5084 8.88894 1.69729 8.70679L1.99074 8.41379V14.9998C1.99074 15.265 2.09626 15.5194 2.28408 15.7069C2.47191 15.8944 2.72665 15.9998 2.99228 15.9998H4.99535C5.26098 15.9998 5.51572 15.8944 5.70355 15.7069C5.89137 15.5194 5.99689 15.265 5.99689 14.9998V12.9998C5.99689 12.7346 6.10241 12.4802 6.29024 12.2927C6.47806 12.1051 6.73281 11.9998 6.99843 11.9998H9.00151C9.26713 11.9998 9.52188 12.1051 9.7097 12.2927C9.89753 12.4802 10.003 12.7346 10.003 12.9998V14.9998C10.003 15.265 10.1086 15.5194 10.2964 15.7069C10.4842 15.8944 10.739 15.9998 11.0046 15.9998H13.0077C13.2733 15.9998 13.528 15.8944 13.7159 15.7069C13.9037 15.5194 14.0092 15.265 14.0092 14.9998V8.41379L14.3026 8.70679C14.4915 8.88894 14.7445 8.98974 15.0071 8.98746C15.2697 8.98518 15.5209 8.88001 15.7066 8.6946C15.8923 8.5092 15.9976 8.25838 15.9999 7.99619C16.0022 7.73399 15.9013 7.48139 15.7188 7.29279L8.70806 0.292786Z" fill="white"/>
</svg>
