<svg width="16" height="20" viewBox="0 0 16 20" fill="none" xmlns="http://www.w3.org/2000/svg">
<path d="M7.99997 20C11.976 20 16 18.626 16 16V4C16 1.374 11.976 0 7.99997 0C4.02397 0 -3.05176e-05 1.374 -3.05176e-05 4V16C-3.05176e-05 18.626 4.02397 20 7.99997 20ZM7.99997 18C4.27797 18 1.99997 16.705 1.99997 16V14.732C3.54097 15.57 5.77697 16 7.99997 16C10.223 16 12.459 15.57 14 14.732V16C14 16.705 11.722 18 7.99997 18ZM7.99997 2C11.722 2 14 3.295 14 4C14 4.705 11.722 6 7.99997 6C4.27797 6 1.99997 4.705 1.99997 4C1.99997 3.295 4.27797 2 7.99997 2ZM1.99997 6.732C3.54097 7.57 5.77697 8 7.99997 8C10.223 8 12.459 7.57 14 6.732V8C14 8.705 11.722 10 7.99997 10C4.27797 10 1.99997 8.705 1.99997 8V6.732ZM1.99997 10.732C3.54097 11.57 5.77697 12 7.99997 12C10.223 12 12.459 11.57 14 10.732V12C14 12.705 11.722 14 7.99997 14C4.27797 14 1.99997 12.705 1.99997 12V10.732Z" fill="#C7C7D2"/>
</svg>
