<svg width="16" height="12" viewBox="0 0 16 12" fill="none" xmlns="http://www.w3.org/2000/svg">
<path d="M13.6 0H2.39997C1.76345 0 1.153 0.237053 0.702913 0.65901C0.252826 1.08097 -3.05176e-05 1.65326 -3.05176e-05 2.25V9.75C-3.05176e-05 10.3467 0.252826 10.919 0.702913 11.341C1.153 11.7629 1.76345 12 2.39997 12H13.6C14.2365 12 14.8469 11.7629 15.297 11.341C15.7471 10.919 16 10.3467 16 9.75V2.25C16 1.65326 15.7471 1.08097 15.297 0.65901C14.8469 0.237053 14.2365 0 13.6 0ZM13.064 1.5L7.99997 5.0625L2.93597 1.5H13.064ZM13.6 10.5H2.39997C2.1878 10.5 1.98431 10.421 1.83428 10.2803C1.68426 10.1397 1.59997 9.94891 1.59997 9.75V2.4375L7.51997 6.6C7.65845 6.69737 7.82687 6.75 7.99997 6.75C8.17307 6.75 8.34149 6.69737 8.47997 6.6L14.4 2.4375V9.75C14.4 9.94891 14.3157 10.1397 14.1657 10.2803C14.0156 10.421 13.8121 10.5 13.6 10.5Z" fill="#C7C7D2"/>
</svg>
