<svg width="16" height="16" viewBox="0 0 16 16" fill="none" xmlns="http://www.w3.org/2000/svg">
<path d="M7.99997 16C5.78753 16 3.87997 15.2089 2.33241 13.648C0.784858 12.0916 -3.05176e-05 10.1911 -3.05176e-05 8C-3.05176e-05 5.78844 0.785747 3.88089 2.33508 2.33333C3.88175 0.785778 5.78841 0 7.99997 0C10.192 0 12.0924 0.784889 13.648 2.33244C15.208 3.88089 16 5.78844 16 8C16 10.1911 15.2089 12.0924 13.6497 13.6507C12.0933 15.2089 10.1929 16 7.99997 16ZM7.99997 1.77778C6.25241 1.77778 4.81064 2.37067 3.59286 3.59111C2.37153 4.81067 1.77775 6.25244 1.77775 8C1.77775 9.728 2.37153 11.1662 3.59375 12.3956C4.8133 13.6249 6.25419 14.2222 7.99997 14.2222C9.72708 14.2222 11.1644 13.624 12.392 12.3938C13.624 11.1636 14.2222 9.72533 14.2222 8C14.2222 6.25511 13.6249 4.81333 12.3955 3.59378C11.1662 2.37156 9.72886 1.77778 7.99997 1.77778ZM5.3333 10.2222C4.10753 10.2222 3.11108 9.22578 3.11108 8C3.11108 6.77422 4.10753 5.77778 5.3333 5.77778C6.55908 5.77778 7.55553 6.77422 7.55553 8C7.55553 9.22578 6.55908 10.2222 5.3333 10.2222ZM5.3333 6.66667C4.59819 6.66667 3.99997 7.26489 3.99997 8C3.99997 8.73511 4.59819 9.33333 5.3333 9.33333C6.06841 9.33333 6.66664 8.73511 6.66664 8C6.66664 7.26489 6.06841 6.66667 5.3333 6.66667ZM10.6666 10.2222C9.44086 10.2222 8.44441 9.22578 8.44441 8C8.44441 6.77422 9.44086 5.77778 10.6666 5.77778C11.8924 5.77778 12.8889 6.77422 12.8889 8C12.8889 9.22578 11.8924 10.2222 10.6666 10.2222Z" fill="#C7C7D2"/>
</svg>
