<svg width="16" height="16" viewBox="0 0 16 16" fill="none" xmlns="http://www.w3.org/2000/svg">
<path d="M15.7646 3.55609C15.6218 3.28997 15.4174 3.06821 15.1712 2.91242C14.925 2.75663 14.6455 2.67215 14.36 2.6672H3.78413L3.30492 0.658302C3.2565 0.464379 3.14848 0.293806 2.99845 0.174364C2.84841 0.0549213 2.66521 -0.0063527 2.47868 0.000521318H0.826206C0.607075 0.000521318 0.396918 0.0941722 0.241969 0.260872C0.0870191 0.427572 -3.05176e-05 0.653665 -3.05176e-05 0.889414C-3.05176e-05 1.12516 0.0870191 1.35126 0.241969 1.51796C0.396918 1.68466 0.607075 1.77831 0.826206 1.77831H1.85074L4.13115 10.8983C4.17957 11.0923 4.28759 11.2628 4.43762 11.3823C4.58766 11.5017 4.77086 11.563 4.95739 11.5561H12.3935C12.5461 11.5556 12.6956 11.5097 12.8254 11.4234C12.9552 11.3371 13.0602 11.2138 13.1289 11.0672L15.8389 5.2361C15.9564 4.97122 16.0111 4.67918 15.9981 4.38604C15.9851 4.09289 15.9049 3.80776 15.7646 3.55609ZM11.8813 9.77834H5.58533L4.23856 4.44498H14.36L11.8813 9.77834Z" fill="#C7C7D2"/>
<path d="M4.54355 16.0007C5.22803 16.0007 5.78291 15.4037 5.78291 14.6673C5.78291 13.9309 5.22803 13.334 4.54355 13.334C3.85908 13.334 3.3042 13.9309 3.3042 14.6673C3.3042 15.4037 3.85908 16.0007 4.54355 16.0007Z" fill="#C7C7D2"/>
<path d="M12.8064 16.0007C13.4909 16.0007 14.0458 15.4037 14.0458 14.6673C14.0458 13.9309 13.4909 13.334 12.8064 13.334C12.122 13.334 11.5671 13.9309 11.5671 14.6673C11.5671 15.4037 12.122 16.0007 12.8064 16.0007Z" fill="#C7C7D2"/>
</svg>
