<svg width="16" height="14" viewBox="0 0 16 14" fill="none" xmlns="http://www.w3.org/2000/svg">
<path d="M14.5459 0H4.36435C3.9786 0 3.60864 0.163889 3.33587 0.455612C3.06309 0.747335 2.90985 1.143 2.90985 1.55556V3.11111H4.36435V1.55556H14.5459V9.33333H13.0914V10.8889H14.5459C14.9316 10.8889 15.3016 10.725 15.5744 10.4333C15.8471 10.1416 16.0004 9.74589 16.0004 9.33333V1.55556C16.0004 1.143 15.8471 0.747335 15.5744 0.455612C15.3016 0.163889 14.9316 0 14.5459 0Z" fill="#C7C7D2"/>
<path d="M11.636 3.11035H1.45447C1.06871 3.11035 0.698756 3.27424 0.425983 3.56596C0.153211 3.85769 -3.05176e-05 4.25335 -3.05176e-05 4.66591V12.4437C-3.05176e-05 12.8562 0.153211 13.2519 0.425983 13.5436C0.698756 13.8354 1.06871 13.9992 1.45447 13.9992H11.636C12.0218 13.9992 12.3917 13.8354 12.6645 13.5436C12.9373 13.2519 13.0905 12.8562 13.0905 12.4437V4.66591C13.0905 4.25335 12.9373 3.85769 12.6645 3.56596C12.3917 3.27424 12.0218 3.11035 11.636 3.11035ZM1.45447 12.4437V4.66591H11.636V12.4437H1.45447Z" fill="#C7C7D2"/>
</svg>
